<svg width="14" height="16" xmlns="http://www.w3.org/2000/svg" class="svg-container">
 <g>
  <title>Layer 1</title>
  <path d="m1.41667,1.41667l9,0l0,3l3,0l0,11l-12,0l0,-14z" stroke-linejoin="bevel" stroke="#000000" fill="rgb(90,105,166)" id="svg_2"/>
  <path d="m10.41667,1.41667l3,3" stroke-linecap="round" stroke="#000000" id="svg_3"/>
  <text transform="matrix(0.8 0 0 1 0 0)" font-family="arial" fill="#ffffff" font-size="6px" y="14.08333" x="3.125" id="svg_7">SVG</text>
  <path id="svg_10" d="m3.25,2.33333c0,0 3.16667,1.83333 3.08333,1.75c-0.08333,-0.08333 -3.5,2.58333 -3.5,2.58333c0,0 0.41667,-4.33333 0.41667,-4.33333z" stroke-linecap="null" stroke-linejoin="null" stroke-dasharray="null" stroke-width="1px" fill="#7fff00"/>
  <path id="svg_11" d="m5.16375,4.89874c0,0 -0.08042,3.67659 -0.08042,3.68472c0,0.00813 4.66378,-0.0752 4.58337,-0.1504c-0.08041,-0.0752 0,-3.85952 0,-3.68472c0,0.1748 -4.50295,0.1504 -4.50295,0.1504z" stroke-linecap="null" stroke-linejoin="null" stroke-dasharray="null" stroke-width="1px" fill="#ff0000"/>
  <circle stroke="#000000" id="svg_12" r="1.7798" cy="6.75" cx="4.625" stroke-linecap="null" stroke-linejoin="bevel" stroke-dasharray="null" stroke-width="0" fill="#0000ff"/>
 </g>
</svg>